<svg
              width="239"
              height="200"
              viewBox="0 0 239 200"
              fill="none"
              xmlns="http://www.w3.org/2000/svg"
            >
              <path
                d="M170.054 18.8429H166.286C166.153 18.8429 166.026 18.8958 165.932 18.9899C165.838 19.0841 165.785 19.2117 165.785 19.3449V21.0074C165.785 21.1405 165.838 21.2682 165.932 21.3623C166.026 21.4565 166.153 21.5094 166.286 21.5094H166.913V24.0031H169.44V21.5094H170.065C170.197 21.5094 170.325 21.4565 170.419 21.3623C170.512 21.2682 170.565 21.1405 170.565 21.0074V19.3449C170.565 19.278 170.552 19.2119 170.526 19.1503C170.5 19.0886 170.462 19.0328 170.415 18.986C170.367 18.9393 170.311 18.9025 170.249 18.878C170.187 18.8534 170.12 18.8415 170.054 18.8429Z"
                fill="#E6E6E6"
              />
              <path
                d="M173.84 34.0633C171.525 30.6685 170.342 26.6257 170.46 22.5148C170.461 22.42 170.43 22.3274 170.372 22.2527C170.314 22.178 170.232 22.1257 170.139 22.1046V21.3867H166.148V22.0938H166.094C165.985 22.0945 165.881 22.1384 165.805 22.2157C165.728 22.2931 165.685 22.3977 165.685 22.5068V22.5364C165.999 26.9302 164.938 30.8715 162.501 34.3602C162.36 34.5604 162.289 34.801 162.296 35.0457L162.732 48.5806C162.744 48.8825 162.87 49.1686 163.086 49.3792C163.302 49.5898 163.591 49.7088 163.892 49.7114H172.917C173.222 49.7093 173.514 49.5876 173.731 49.3722C173.948 49.1568 174.072 48.8649 174.077 48.559L174.246 35.4182C174.25 34.9358 174.109 34.4636 173.84 34.0633Z"
                fill="#E6E6E6"
              />
              <path
                d="M172.411 38.5581H164.552C164.337 38.5581 164.132 38.6434 163.981 38.7952C163.829 38.9471 163.744 39.153 163.744 39.3678C163.742 39.4091 163.742 39.4506 163.744 39.4919L164.942 47.2296H171.759L173.202 39.5162C173.241 39.3054 173.196 39.0876 173.075 38.9105C172.954 38.7334 172.769 38.6115 172.559 38.5716C172.509 38.5676 172.46 38.5676 172.411 38.5716V38.5581Z"
                fill="white"
              />
              <path
                d="M212.118 59.3878H208.35C208.217 59.3878 208.09 59.4407 207.996 59.5348C207.902 59.629 207.85 59.7567 207.85 59.8898V61.555C207.85 61.6881 207.902 61.8158 207.996 61.91C208.09 62.0041 208.217 62.057 208.35 62.057H208.975V64.548H211.502V62.057H212.129C212.262 62.057 212.389 62.0041 212.483 61.91C212.577 61.8158 212.63 61.6881 212.63 61.555V59.8898C212.63 59.823 212.616 59.7568 212.591 59.6952C212.565 59.6335 212.527 59.5777 212.479 59.531C212.432 59.4842 212.375 59.4475 212.313 59.4229C212.251 59.3983 212.185 59.3864 212.118 59.3878Z"
                fill="#E6E6E6"
              />
              <path
                d="M215.902 74.611C213.588 71.2155 212.405 67.1732 212.521 63.0625C212.524 62.9674 212.494 62.8743 212.435 62.7993C212.377 62.7244 212.294 62.6724 212.201 62.6522V61.9316H208.212V62.6414H208.156C208.047 62.6414 207.943 62.6847 207.866 62.7616C207.79 62.8385 207.747 62.9429 207.747 63.0517C207.745 63.0615 207.745 63.0715 207.747 63.0814C208.061 67.4787 206.998 71.42 204.56 74.9051C204.421 75.1057 204.35 75.3463 204.358 75.5906L204.794 89.1255C204.804 89.4272 204.931 89.7133 205.146 89.924C205.362 90.1347 205.65 90.2537 205.951 90.2563H214.979C215.283 90.2536 215.574 90.132 215.791 89.9173C216.008 89.7027 216.132 89.4119 216.139 89.1066L216.305 75.9658C216.311 75.4835 216.17 75.0109 215.902 74.611Z"
                fill="#E6E6E6"
              />
              <path
                d="M214.473 79.1074H206.616C206.402 79.1074 206.197 79.1927 206.045 79.3446C205.894 79.4964 205.809 79.7023 205.809 79.9171C205.805 79.9584 205.805 80 205.809 80.0412L206.996 87.7789H213.813L215.256 80.0682C215.275 79.9637 215.274 79.8563 215.252 79.7522C215.23 79.6482 215.188 79.5494 215.128 79.4617C215.068 79.374 214.991 79.299 214.902 79.241C214.813 79.183 214.714 79.1431 214.61 79.1236C214.561 79.1137 214.511 79.1091 214.462 79.1101L214.473 79.1074Z"
                fill="white"
              />
              <path
                d="M164.743 116.709H162.95C162.919 116.709 162.888 116.715 162.859 116.727C162.83 116.739 162.804 116.756 162.781 116.778C162.759 116.8 162.741 116.826 162.729 116.855C162.717 116.884 162.711 116.916 162.711 116.947V117.738C162.712 117.801 162.737 117.861 162.782 117.906C162.827 117.95 162.887 117.975 162.95 117.975H163.247V119.157H164.447V117.975H164.746C164.808 117.975 164.868 117.949 164.912 117.905C164.957 117.861 164.982 117.801 164.983 117.738V116.947C164.983 116.884 164.958 116.824 164.913 116.779C164.869 116.735 164.808 116.709 164.746 116.709H164.743Z"
                fill="#E6E6E6"
              />
              <path
                d="M166.538 123.93C165.435 122.32 164.87 120.402 164.923 118.451C164.924 118.406 164.909 118.363 164.882 118.327C164.854 118.292 164.816 118.267 164.772 118.257V117.917H162.888V118.251H162.864C162.838 118.251 162.813 118.256 162.789 118.266C162.766 118.276 162.744 118.291 162.726 118.309C162.708 118.327 162.694 118.349 162.684 118.373C162.675 118.397 162.67 118.422 162.67 118.448V118.462C162.845 120.452 162.309 122.44 161.158 124.07C161.092 124.165 161.058 124.278 161.061 124.394L161.268 130.814C161.272 130.956 161.33 131.091 161.43 131.192C161.53 131.292 161.665 131.35 161.806 131.354H166.088C166.232 131.353 166.37 131.296 166.472 131.195C166.575 131.095 166.635 130.958 166.64 130.814L166.718 124.58C166.726 124.35 166.663 124.123 166.538 123.93Z"
                fill="#E6E6E6"
              />
              <path
                d="M165.922 126.291H161.836V128.339H165.922V126.291Z"
                fill="white"
              />
              <path
                d="M173.087 116.709H171.294C171.263 116.709 171.232 116.715 171.203 116.727C171.174 116.739 171.147 116.756 171.125 116.778C171.103 116.8 171.085 116.826 171.073 116.855C171.061 116.884 171.055 116.916 171.055 116.947V117.738C171.055 117.801 171.081 117.861 171.126 117.906C171.171 117.95 171.231 117.975 171.294 117.975H171.59V119.157H172.791V117.975H173.089C173.152 117.975 173.212 117.949 173.256 117.905C173.3 117.861 173.326 117.801 173.326 117.738V116.947C173.326 116.884 173.301 116.824 173.257 116.779C173.212 116.735 173.152 116.709 173.089 116.709H173.087Z"
                fill="#E6E6E6"
              />
              <path
                d="M174.882 123.93C173.779 122.32 173.214 120.402 173.267 118.451C173.267 118.406 173.253 118.363 173.225 118.327C173.198 118.292 173.159 118.267 173.116 118.257V117.917H171.232V118.251H171.208C171.182 118.251 171.157 118.256 171.133 118.266C171.109 118.276 171.088 118.291 171.07 118.309C171.052 118.327 171.038 118.349 171.028 118.373C171.018 118.397 171.014 118.422 171.014 118.448V118.462C171.189 120.452 170.653 122.44 169.501 124.07C169.435 124.165 169.401 124.278 169.404 124.394L169.612 130.814C169.616 130.956 169.674 131.091 169.774 131.192C169.874 131.292 170.009 131.35 170.15 131.354H174.432C174.576 131.353 174.713 131.296 174.816 131.195C174.919 131.095 174.979 130.958 174.984 130.814L175.062 124.58C175.069 124.35 175.007 124.123 174.882 123.93Z"
                fill="#E6E6E6"
              />
              <path
                d="M174.265 126.291H170.18V128.339H174.265V126.291Z"
                fill="white"
              />
              <path
                d="M181.43 116.709H179.638C179.607 116.709 179.576 116.715 179.547 116.727C179.517 116.739 179.491 116.756 179.469 116.778C179.446 116.8 179.429 116.826 179.417 116.855C179.405 116.884 179.398 116.916 179.398 116.947V117.738C179.399 117.801 179.425 117.861 179.47 117.906C179.514 117.95 179.575 117.975 179.638 117.975H179.934V119.157H181.134V117.975H181.433C181.496 117.975 181.556 117.949 181.6 117.905C181.644 117.861 181.669 117.801 181.67 117.738V116.947C181.67 116.884 181.645 116.824 181.601 116.779C181.556 116.735 181.496 116.709 181.433 116.709H181.43Z"
                fill="#E6E6E6"
              />
              <path
                d="M183.225 123.93C182.123 122.32 181.558 120.402 181.611 118.451C181.611 118.406 181.597 118.363 181.569 118.327C181.542 118.292 181.503 118.267 181.46 118.257V117.917H179.576V118.251H179.552C179.526 118.251 179.5 118.256 179.477 118.266C179.453 118.276 179.432 118.291 179.414 118.309C179.396 118.327 179.381 118.349 179.372 118.373C179.362 118.397 179.357 118.422 179.358 118.448V118.462C179.533 120.452 178.997 122.44 177.845 124.07C177.779 124.165 177.745 124.278 177.748 124.394L177.955 130.814C177.96 130.956 178.018 131.091 178.118 131.192C178.218 131.292 178.352 131.35 178.494 131.354H182.776C182.92 131.353 183.057 131.296 183.16 131.195C183.263 131.095 183.323 130.958 183.328 130.814L183.406 124.58C183.413 124.35 183.35 124.123 183.225 123.93Z"
                fill="#E6E6E6"
              />
              <path
                d="M182.609 126.291H178.523V128.339H182.609V126.291Z"
                fill="white"
              />
              <path
                d="M205.554 101.024H201.786C201.653 101.024 201.526 101.077 201.432 101.171C201.338 101.265 201.285 101.393 201.285 101.526V103.188C201.285 103.322 201.338 103.449 201.432 103.543C201.526 103.638 201.653 103.69 201.786 103.69H202.397V106.184H204.921V103.69H205.548C205.614 103.69 205.679 103.677 205.74 103.652C205.801 103.627 205.856 103.59 205.902 103.543C205.949 103.497 205.986 103.441 206.011 103.381C206.036 103.32 206.049 103.254 206.049 103.188V101.526C206.049 101.46 206.036 101.395 206.011 101.334C205.986 101.273 205.949 101.218 205.902 101.171C205.856 101.124 205.801 101.087 205.74 101.062C205.679 101.037 205.614 101.024 205.548 101.024H205.554Z"
                fill="#E6E6E6"
              />
              <path
                d="M209.338 116.247C207.024 112.851 205.841 108.808 205.958 104.696C205.96 104.601 205.93 104.509 205.872 104.434C205.814 104.359 205.732 104.307 205.64 104.286V103.568H201.649V104.278H201.589C201.481 104.278 201.377 104.321 201.3 104.398C201.223 104.475 201.18 104.579 201.18 104.688C201.18 104.688 201.18 104.707 201.18 104.718C201.494 109.111 200.432 113.053 197.994 116.541C197.854 116.742 197.783 116.982 197.792 117.227L198.228 130.762C198.238 131.063 198.364 131.349 198.58 131.56C198.796 131.771 199.084 131.89 199.385 131.893H208.412C208.717 131.89 209.008 131.768 209.225 131.554C209.441 131.339 209.566 131.048 209.572 130.743L209.739 117.599C209.745 117.118 209.605 116.647 209.338 116.247Z"
                fill="#E6E6E6"
              />
              <path
                d="M207.909 120.743H200.053C199.838 120.743 199.633 120.828 199.482 120.98C199.33 121.132 199.245 121.338 199.245 121.552C199.241 121.594 199.241 121.635 199.245 121.676L200.432 129.414H207.25L208.692 121.701C208.731 121.49 208.684 121.273 208.563 121.096C208.442 120.919 208.256 120.798 208.046 120.759C207.997 120.749 207.948 120.744 207.898 120.745L207.909 120.743Z"
                fill="white"
              />
              <path
                d="M207.615 51.454H185.091C186.668 42.9147 186.305 32.605 185.091 21.5181H207.615C206.434 32.605 206.084 42.912 207.615 51.454Z"
                fill="#E6E6E6"
              />
              <path
                d="M196.488 41.1129C199.486 41.1129 201.917 38.6757 201.917 35.6692C201.917 32.6628 199.486 30.2256 196.488 30.2256C193.49 30.2256 191.06 32.6628 191.06 35.6692C191.06 38.6757 193.49 41.1129 196.488 41.1129Z"
                fill="white"
              />
              <path
                d="M186.991 91.1808H164.469C166.043 82.6442 165.68 72.3345 164.469 61.2476H186.991C185.812 72.3291 185.459 82.6442 186.991 91.1808Z"
                fill="#E6E6E6"
              />
              <path
                d="M175.864 80.8423C178.862 80.8423 181.293 78.4051 181.293 75.3987C181.293 72.3923 178.862 69.9551 175.864 69.9551C172.866 69.9551 170.436 72.3923 170.436 75.3987C170.436 78.4051 172.866 80.8423 175.864 80.8423Z"
                fill="white"
              />
              <path
                d="M220.369 53.3575H197.845C199.422 44.821 199.059 34.5113 197.845 23.4243H220.369C219.191 34.5113 218.838 44.821 220.369 53.3575Z"
                fill="#E6E6E6"
              />
              <path
                d="M209.243 43.0166C212.241 43.0166 214.672 40.5795 214.672 37.573C214.672 34.5666 212.241 32.1294 209.243 32.1294C206.245 32.1294 203.814 34.5666 203.814 37.573C203.814 40.5795 206.245 43.0166 209.243 43.0166Z"
                fill="white"
              />
              <path
                d="M220.369 51.9962H197.845C199.422 43.4597 199.059 33.15 197.845 22.063H220.369C219.191 33.15 218.838 43.4516 220.369 51.9962Z"
                fill="#E6E6E6"
              />
              <path
                d="M209.243 41.6558C212.241 41.6558 214.672 39.2186 214.672 36.2122C214.672 33.2057 212.241 30.7686 209.243 30.7686C206.245 30.7686 203.814 33.2057 203.814 36.2122C203.814 39.2186 206.245 41.6558 209.243 41.6558Z"
                fill="white"
              />
              <path
                d="M220.369 53.3575H197.845C199.422 44.821 199.059 34.5113 197.845 23.4243H220.369C219.191 34.5113 218.838 44.821 220.369 53.3575Z"
                fill="#E6E6E6"
              />
              <path
                d="M209.243 43.0166C212.241 43.0166 214.672 40.5795 214.672 37.573C214.672 34.5666 212.241 32.1294 209.243 32.1294C206.245 32.1294 203.814 34.5666 203.814 37.573C203.814 40.5795 206.245 43.0166 209.243 43.0166Z"
                fill="white"
              />
              <path
                d="M225.527 49.8203H151.714V57.9844H225.527V49.8203Z"
                fill="#E6E6E6"
              />
              <path
                d="M225.527 90.3672H151.714V98.5313H225.527V90.3672Z"
                fill="#E6E6E6"
              />
              <path
                d="M225.527 130.912H151.714V139.076H225.527V130.912Z"
                fill="#E6E6E6"
              />
              <path
                d="M58.5963 104.516H56.5777C56.5064 104.516 56.4379 104.544 56.3874 104.595C56.3369 104.645 56.3086 104.714 56.3086 104.786V105.673C56.3086 105.745 56.3369 105.814 56.3874 105.864C56.4379 105.915 56.5064 105.943 56.5777 105.943H56.9115V107.274H58.2572V105.943H58.5909C58.6623 105.943 58.7308 105.915 58.7813 105.864C58.8317 105.814 58.8601 105.745 58.8601 105.673V104.786C58.8601 104.715 58.8325 104.647 58.7832 104.597C58.7338 104.546 58.6668 104.517 58.5963 104.516Z"
                fill="#E6E6E6"
              />
              <path
                opacity="0.2"
                d="M58.1755 104.807C58.1805 104.886 58.17 104.966 58.1434 105.041C58.1169 105.115 58.0752 105.184 58.0211 105.242C57.9669 105.3 57.9015 105.347 57.8287 105.378C57.756 105.41 57.6775 105.426 57.5982 105.426C57.5189 105.426 57.4404 105.41 57.3677 105.378C57.2949 105.347 57.2294 105.3 57.1753 105.242C57.1212 105.184 57.0795 105.115 57.053 105.041C57.0264 104.966 57.0155 104.886 57.0209 104.807"
                fill="black"
              />
              <path
                d="M19.5645 69.8069L24.6217 69.3454L27.8379 61.5106L22.0917 58.2827L19.5645 69.8069Z"
                fill="#FFB8B8"
              />
              <path
                d="M65.9707 91.318C66.2513 90.614 66.242 89.8271 65.9448 89.1299C65.6477 88.4327 65.0869 87.8822 64.3855 87.599C64.1008 87.4858 63.8002 87.4184 63.4946 87.3993L55.6436 86.9297L54.4863 90.7837L62.5607 93.0102C63.2371 93.1983 63.9589 93.1296 64.5881 92.8174C65.2172 92.5052 65.7095 91.9714 65.9707 91.318Z"
                fill="#FFB8B8"
              />
              <path
                d="M57.5402 93.075L57.4513 85.842L40.0135 83.0514L26.5805 67.6003C25.881 66.7967 24.9149 66.2744 23.8609 66.13C22.807 65.9856 21.7366 66.2289 20.8477 66.8149C19.8734 67.4577 19.1937 68.4623 18.958 69.6077C18.7222 70.7531 18.9499 71.9454 19.5908 72.9225C19.7353 73.1436 19.9002 73.3505 20.0834 73.5405L31.1667 87.2184L57.5402 93.075Z"
                fill="#92D871"
              />
              <path
                d="M15.6562 174.441H20.2532L31.6542 122.749L43.4669 138.721L50.3624 173.294H54.7306L53.8101 136.187L38.4124 96.5405H23.2407C19.1094 104.062 15.8447 111.819 19.5642 119.829L15.6562 174.441Z"
                fill="#2F2E41"
              />
              <path
                d="M47.5443 177.585C47.4499 177.89 47.4799 178.22 47.6277 178.503C47.7756 178.786 48.0291 178.998 48.3329 179.094C48.3816 179.109 48.431 179.12 48.481 179.129L59.7285 181.132C60.1732 181.213 60.6321 181.128 61.0188 180.894C61.4055 180.659 61.6932 180.29 61.8278 179.858C61.9593 179.445 61.9413 178.999 61.7768 178.598C61.6124 178.197 61.3121 177.867 60.9289 177.666C58.4613 176.394 56.3374 174.542 54.7386 172.269C53.5032 173.424 52.1198 173.316 50.6529 172.463L49.0973 172.66L47.5443 177.585Z"
                fill="#2F2E41"
              />
              <path
                d="M13.5267 177.585C13.4323 177.89 13.4623 178.22 13.6102 178.503C13.758 178.786 14.0116 178.998 14.3153 179.094C14.364 179.109 14.4134 179.12 14.4634 179.129L25.7109 181.132C26.1556 181.213 26.6145 181.128 27.0012 180.894C27.3879 180.659 27.6756 180.29 27.8102 179.858C27.9417 179.445 27.9237 178.999 27.7592 178.598C27.5948 178.197 27.2945 177.867 26.9113 177.666C24.4437 176.394 22.3198 174.542 20.721 172.269C19.4856 173.424 18.1049 173.316 16.6354 172.463L15.0797 172.66L13.5267 177.585Z"
                fill="#2F2E41"
              />
              <path
                d="M27.9528 64.3889C31.5069 64.3889 34.3881 61.4998 34.3881 57.9359C34.3881 54.372 31.5069 51.4829 27.9528 51.4829C24.3987 51.4829 21.5176 54.372 21.5176 57.9359C21.5176 61.4998 24.3987 64.3889 27.9528 64.3889Z"
                fill="#FFB8B8"
              />
              <path
                d="M22.2073 98.2693L38.9858 97.8105L34.0577 82.2596C37.1206 77.3369 34.0389 72.4195 29.6761 67.5022L26.2283 65.1973L20.7243 64.7358C18.3368 67.2989 17.0301 70.6884 17.0774 74.1954C17.177 81.7063 18.5012 89.8731 22.2073 98.2693Z"
                fill="#92D871"
              />
              <path
                d="M60.7568 108.739C61.0224 108.473 61.2332 108.158 61.377 107.81C61.5208 107.463 61.5948 107.09 61.5948 106.714C61.5948 106.338 61.5208 105.966 61.377 105.619C61.2332 105.271 61.0224 104.956 60.7568 104.69C60.5413 104.471 60.2913 104.288 60.0167 104.15L52.9839 100.623L50.4082 103.711L56.9646 108.944C57.5113 109.383 58.2002 109.605 58.8997 109.567C59.5992 109.529 60.2603 109.234 60.7568 108.739Z"
                fill="#FFB8B8"
              />
              <path
                d="M52.3172 107.026L55.0759 100.343L40.1384 90.8973L33.8485 71.3925C33.5209 70.3774 32.8376 69.5157 31.9251 68.9669C31.0127 68.4181 29.9328 68.2194 28.8855 68.4076C28.2521 68.523 27.6517 68.7762 27.1265 69.1494C26.6013 69.5225 26.1639 70.0065 25.8453 70.5674C25.5266 71.1282 25.3344 71.7523 25.2821 72.3956C25.2299 73.0389 25.3188 73.686 25.5427 74.2911L30.3684 91.2373L52.3172 107.026Z"
                fill="#82CF5E"
              />
              <path
                d="M17.3809 55.4037C17.3809 57.9137 18.9957 61.8027 21.0574 63.4679C22.4381 64.5907 24.2629 64.5475 24.9653 63.0091C25.6866 61.433 28.1735 57.7301 32.5498 55.4037C38.3849 52.2973 30.4801 46.9859 24.9653 47.7983C20.8205 48.4055 17.3809 51.2016 17.3809 55.4037Z"
                fill="#2F2E41"
              />
              <path
                d="M21.2864 51.9459C23.8253 51.9459 25.8834 49.8821 25.8834 47.3362C25.8834 44.7904 23.8253 42.7266 21.2864 42.7266C18.7476 42.7266 16.6895 44.7904 16.6895 47.3362C16.6895 49.8821 18.7476 51.9459 21.2864 51.9459Z"
                fill="#2F2E41"
              />
              <path
                d="M26.5747 45.721C26.5719 44.5599 26.1326 43.4426 25.3443 42.5921C24.556 41.7416 23.4769 41.2205 22.3223 41.1329C22.4353 41.1329 22.551 41.1167 22.6668 41.1167C23.886 41.1167 25.0552 41.6024 25.9173 42.4668C26.7794 43.3313 27.2638 44.5038 27.2638 45.7264C27.2638 46.9489 26.7794 48.1214 25.9173 48.9859C25.0552 49.8504 23.886 50.336 22.6668 50.336C22.551 50.336 22.4353 50.336 22.3223 50.3172C23.4787 50.2306 24.5597 49.7088 25.3485 48.8563C26.1372 48.0038 26.5752 46.8838 26.5747 45.721Z"
                fill="#2F2E41"
              />
              <path
                d="M28.0687 60.2421C28.6395 60.2421 29.1022 59.6235 29.1022 58.8603C29.1022 58.0972 28.6395 57.4785 28.0687 57.4785C27.4979 57.4785 27.0352 58.0972 27.0352 58.8603C27.0352 59.6235 27.4979 60.2421 28.0687 60.2421Z"
                fill="#FFB8B8"
              />
              <path
                d="M158.311 165.988H86.7532L71.5977 94.1575H58.668V90.9351H74.203L89.3585 162.766H158.311V165.988Z"
                fill="#3F3D56"
              />
              <path
                d="M97.239 179.112C101.043 179.112 104.126 176.02 104.126 172.205C104.126 168.391 101.043 165.299 97.239 165.299C93.4352 165.299 90.3516 168.391 90.3516 172.205C90.3516 176.02 93.4352 179.112 97.239 179.112Z"
                fill="#3F3D56"
              />
              <path
                d="M148.667 179.112C152.47 179.112 155.554 176.02 155.554 172.205C155.554 168.391 152.47 165.299 148.667 165.299C144.863 165.299 141.779 168.391 141.779 172.205C141.779 176.02 144.863 179.112 148.667 179.112Z"
                fill="#3F3D56"
              />
              <path
                d="M157.006 164.468H87.3836L75.0918 103.595H168.533C169.01 103.595 169.481 103.698 169.914 103.898C170.346 104.097 170.731 104.389 171.041 104.752C171.351 105.114 171.579 105.54 171.709 106C171.839 106.46 171.869 106.942 171.795 107.414L160.265 161.661C160.149 162.444 159.756 163.159 159.157 163.674C158.559 164.19 157.795 164.472 157.006 164.468ZM88.1399 163.551H157.006C157.574 163.553 158.125 163.351 158.607 162.98C159.038 162.609 159.323 162.095 159.408 161.532L170.938 107.285C170.987 106.975 170.974 106.658 170.901 106.353C170.828 106.048 170.695 105.76 170.511 105.507C170.327 105.253 170.094 105.038 169.827 104.875C169.56 104.711 169.264 104.602 168.955 104.553C168.832 104.534 168.708 104.524 168.583 104.524H76.2668L88.1899 163.551Z"
                fill="#3F3D56"
              />
              <path
                d="M100.918 164.274L92.873 104.133L93.7801 103.981L101.825 164.126L100.918 164.274Z"
                fill="#3F3D56"
              />
              <path
                d="M145.65 163.814L144.743 163.666L152.554 103.985L153.461 104.131L145.65 163.814Z"
                fill="#3F3D56"
              />
              <path
                d="M124.337 104.059H123.419V164.203H124.337V104.059Z"
                fill="#3F3D56"
              />
              <path
                d="M79.7933 120.175L79.791 121.096L168.689 121.314L168.691 120.393L79.7933 120.175Z"
                fill="#3F3D56"
              />
              <path
                d="M162.887 148.11L84.7871 148.893L84.7963 149.813L162.897 149.03L162.887 148.11Z"
                fill="#3F3D56"
              />
              <path
                d="M60.044 94.8486C62.8341 94.8486 65.0959 93.6113 65.0959 92.0849C65.0959 90.5586 62.8341 89.3213 60.044 89.3213C57.254 89.3213 54.9922 90.5586 54.9922 92.0849C54.9922 93.6113 57.254 94.8486 60.044 94.8486Z"
                fill="#3F3D56"
              />
            </svg>
